<?xml version="1.0" encoding="utf-8"?>
<!-- Generator: Adobe Illustrator 23.0.3, SVG Export Plug-In . SVG Version: 6.00 Build 0)  -->
<svg version="1.1" id="Layer_1" xmlns="http://www.w3.org/2000/svg" xmlns:xlink="http://www.w3.org/1999/xlink" x="0px" y="0px"
	 viewBox="0 0 33 33" style="enable-background:new 0 0 33 33;" xml:space="preserve">
<style type="text/css">
	.st0{fill:#FFFFFF;}
</style>
<g>
	<g>
		<path class="st0" d="M16.505,0.988L1.5,10.655v3.382h1.998v11.81h26.099V14.159H31.5v-3.505L16.505,0.988z M6.547,22.523V12.062
			l9.958-7.087l9.95,7.087v10.461H6.547z"/>
		<rect x="11.431" y="15.873" class="st0" width="10.146" height="4.112"/>
		<rect x="11.431" y="10.992" class="st0" width="10.146" height="4.122"/>
		<polygon class="st0" points="3.637,28.779 3.637,26.51 5.274,26.51 5.274,26.782 3.938,26.782 3.938,27.468 5.186,27.468 
			5.186,27.741 3.938,27.741 3.938,28.506 5.326,28.506 5.326,28.779 		"/>
		<path class="st0" d="M7.458,28.528c0.137,0.1,0.269,0.166,0.388,0.215l-0.093,0.206c-0.168-0.058-0.327-0.152-0.474-0.276
			C7.1,28.77,6.918,28.812,6.71,28.812c-0.205,0-0.386-0.053-0.56-0.144c-0.163-0.098-0.298-0.237-0.373-0.422
			c-0.1-0.179-0.144-0.377-0.144-0.606c0-0.222,0.044-0.425,0.144-0.606c0.085-0.179,0.21-0.325,0.383-0.416
			c0.164-0.095,0.359-0.151,0.555-0.151c0.203,0,0.399,0.056,0.564,0.156c0.169,0.097,0.295,0.234,0.39,0.413
			c0.085,0.179,0.127,0.383,0.127,0.604c0,0.191-0.025,0.357-0.085,0.503C7.652,28.291,7.571,28.426,7.458,28.528 M6.797,28.149
			c0.171,0.051,0.317,0.124,0.428,0.223c0.179-0.168,0.252-0.41,0.252-0.731c0-0.183-0.02-0.344-0.085-0.477
			c-0.059-0.139-0.154-0.244-0.264-0.318c-0.124-0.074-0.269-0.12-0.408-0.12c-0.23,0-0.418,0.085-0.559,0.232
			c-0.144,0.159-0.223,0.388-0.223,0.684c0,0.295,0.073,0.518,0.22,0.681c0.144,0.159,0.332,0.23,0.562,0.23
			c0.105,0,0.21-0.014,0.3-0.053c-0.09-0.061-0.195-0.11-0.3-0.127L6.797,28.149z"/>
		<path class="st0" d="M9.677,26.51h0.31v1.31c0,0.223-0.032,0.406-0.083,0.538C9.855,28.495,9.76,28.6,9.63,28.688
			c-0.132,0.08-0.322,0.124-0.533,0.124c-0.207,0-0.384-0.037-0.518-0.107c-0.132-0.073-0.227-0.183-0.298-0.322
			c-0.053-0.137-0.076-0.322-0.076-0.564v-1.31h0.302v1.31c0,0.195,0.015,0.337,0.059,0.437c0.029,0.086,0.093,0.159,0.185,0.206
			c0.083,0.054,0.2,0.083,0.325,0.083c0.213,0,0.374-0.058,0.471-0.147c0.093-0.105,0.132-0.3,0.132-0.579V26.51H9.677z"/>
		<path class="st0" d="M10.226,28.775l0.881-2.265h0.323l0.923,2.265H12.01l-0.267-0.691h-0.938l-0.259,0.691H10.226z
			 M10.884,27.847h0.767l-0.232-0.632c-0.076-0.19-0.127-0.344-0.168-0.465c-0.03,0.147-0.064,0.286-0.112,0.433L10.884,27.847z"/>
		<polygon class="st0" points="12.576,28.779 12.576,26.51 12.869,26.51 12.869,28.506 13.993,28.506 13.993,28.779 		"/>
		<polygon class="st0" points="15.122,28.779 15.122,26.51 15.415,26.51 15.415,27.441 16.586,27.441 16.586,26.51 16.889,26.51 
			16.889,28.779 16.586,28.779 16.586,27.715 15.415,27.715 15.415,28.779 		"/>
		<path class="st0" d="M17.297,27.675c0-0.378,0.098-0.672,0.307-0.882c0.193-0.215,0.46-0.325,0.782-0.325
			c0.201,0,0.388,0.058,0.559,0.156c0.169,0.097,0.298,0.234,0.379,0.416c0.086,0.176,0.132,0.379,0.132,0.608
			c0,0.227-0.046,0.437-0.132,0.615c-0.098,0.179-0.23,0.313-0.398,0.411c-0.168,0.097-0.354,0.139-0.554,0.139
			c-0.21,0-0.396-0.049-0.569-0.156c-0.164-0.105-0.291-0.237-0.384-0.425C17.333,28.062,17.297,27.868,17.297,27.675
			 M17.604,27.675c0,0.278,0.073,0.489,0.218,0.647c0.154,0.157,0.328,0.232,0.55,0.232c0.232,0,0.41-0.075,0.562-0.232
			c0.147-0.162,0.213-0.386,0.213-0.679c0-0.179-0.034-0.345-0.096-0.476c-0.059-0.146-0.147-0.249-0.269-0.32
			c-0.12-0.08-0.247-0.118-0.396-0.118c-0.223,0-0.395,0.076-0.552,0.222C17.677,27.097,17.604,27.334,17.604,27.675"/>
		<path class="st0" d="M21.325,26.51h0.305v1.31c0,0.223-0.027,0.406-0.08,0.538c-0.049,0.137-0.139,0.242-0.279,0.33
			c-0.127,0.08-0.305,0.124-0.527,0.124c-0.208,0-0.381-0.037-0.521-0.107c-0.134-0.073-0.232-0.183-0.279-0.322
			c-0.059-0.137-0.095-0.322-0.095-0.564v-1.31h0.303v1.31c0,0.195,0.015,0.337,0.054,0.437c0.037,0.086,0.096,0.159,0.184,0.206
			c0.088,0.054,0.195,0.083,0.327,0.083c0.22,0,0.378-0.058,0.472-0.147c0.091-0.105,0.135-0.3,0.135-0.579L21.325,26.51
			L21.325,26.51z"/>
		<path class="st0" d="M22.023,28.051l0.281-0.026c0.012,0.105,0.044,0.201,0.102,0.276c0.046,0.075,0.115,0.13,0.223,0.179
			c0.102,0.042,0.218,0.066,0.344,0.066c0.12,0,0.227-0.019,0.31-0.051c0.081-0.029,0.151-0.085,0.19-0.144
			c0.044-0.061,0.069-0.12,0.069-0.193c0-0.075-0.025-0.132-0.066-0.185c-0.042-0.049-0.112-0.1-0.206-0.132
			c-0.064-0.025-0.196-0.059-0.403-0.11c-0.2-0.049-0.356-0.097-0.432-0.144c-0.105-0.056-0.183-0.127-0.237-0.207
			c-0.061-0.083-0.083-0.179-0.083-0.284c0-0.119,0.025-0.222,0.095-0.32c0.059-0.097,0.154-0.174,0.284-0.223
			c0.117-0.053,0.259-0.081,0.413-0.081c0.166,0,0.323,0.029,0.447,0.085c0.122,0.056,0.22,0.129,0.298,0.235
			c0.064,0.105,0.098,0.227,0.107,0.357l-0.286,0.022c-0.015-0.146-0.068-0.252-0.161-0.327c-0.081-0.074-0.218-0.11-0.389-0.11
			c-0.186,0-0.312,0.036-0.403,0.1c-0.085,0.068-0.114,0.152-0.114,0.247c0,0.078,0.029,0.137,0.073,0.191
			c0.075,0.056,0.22,0.108,0.462,0.168c0.242,0.049,0.413,0.097,0.503,0.139c0.115,0.066,0.225,0.14,0.283,0.228
			c0.071,0.102,0.101,0.206,0.101,0.322c0,0.127-0.039,0.242-0.101,0.35c-0.075,0.105-0.169,0.184-0.298,0.245
			c-0.132,0.054-0.278,0.086-0.444,0.086c-0.195,0-0.374-0.032-0.506-0.086c-0.142-0.068-0.252-0.147-0.327-0.278
			C22.065,28.338,22.026,28.2,22.023,28.051"/>
		<rect x="24.284" y="26.51" class="st0" width="0.3" height="2.265"/>
		<polygon class="st0" points="25.107,28.779 25.107,26.51 25.419,26.51 26.601,28.291 26.601,26.51 26.89,26.51 26.89,28.779 
			26.587,28.779 25.398,26.994 25.398,28.779 		"/>
		<path class="st0" d="M28.456,27.885V27.62h0.958v0.847c-0.152,0.112-0.307,0.201-0.46,0.259c-0.147,0.054-0.315,0.086-0.477,0.086
			c-0.229,0-0.43-0.047-0.613-0.139c-0.179-0.095-0.312-0.232-0.405-0.416c-0.097-0.183-0.142-0.383-0.142-0.604
			c0-0.215,0.046-0.423,0.137-0.616c0.098-0.19,0.23-0.332,0.4-0.422c0.169-0.09,0.369-0.142,0.603-0.142
			c0.167,0,0.308,0.029,0.437,0.085c0.135,0.046,0.235,0.124,0.31,0.21c0.073,0.105,0.136,0.227,0.174,0.378l-0.269,0.071
			c-0.042-0.108-0.069-0.196-0.125-0.266c-0.053-0.071-0.127-0.12-0.218-0.164c-0.098-0.034-0.195-0.058-0.308-0.058
			c-0.132,0-0.261,0.024-0.356,0.064c-0.1,0.037-0.185,0.096-0.247,0.167c-0.059,0.064-0.107,0.139-0.142,0.224
			c-0.053,0.137-0.088,0.284-0.088,0.457c0,0.196,0.036,0.369,0.113,0.503c0.07,0.137,0.168,0.235,0.291,0.298
			c0.137,0.07,0.279,0.105,0.428,0.105c0.13,0,0.261-0.029,0.377-0.08c0.136-0.051,0.222-0.095,0.283-0.166v-0.416
			C29.117,27.885,28.456,27.885,28.456,27.885z"/>
		<path class="st0" d="M3.417,30.678c0-0.444,0.124-0.791,0.357-1.034c0.24-0.245,0.547-0.378,0.923-0.378
			c0.237,0,0.464,0.066,0.653,0.183c0.2,0.112,0.352,0.279,0.454,0.489c0.108,0.207,0.147,0.444,0.147,0.706
			c0,0.274-0.052,0.511-0.151,0.723c-0.113,0.212-0.276,0.379-0.465,0.484c-0.198,0.107-0.418,0.161-0.638,0.161
			c-0.257,0-0.476-0.054-0.681-0.181c-0.195-0.115-0.342-0.286-0.452-0.491C3.467,31.132,3.417,30.915,3.417,30.678 M3.784,30.683
			c0,0.317,0.08,0.572,0.252,0.758c0.185,0.178,0.396,0.274,0.66,0.274c0.254,0,0.469-0.097,0.638-0.281
			c0.173-0.179,0.261-0.449,0.261-0.791c0-0.217-0.039-0.398-0.113-0.559c-0.076-0.166-0.174-0.293-0.317-0.373
			c-0.147-0.095-0.296-0.142-0.469-0.142c-0.251,0-0.466,0.09-0.64,0.262C3.877,30.001,3.784,30.285,3.784,30.683"/>
		<path class="st0" d="M6.383,31.965v-2.648H7.39c0.171,0,0.313,0.015,0.4,0.025c0.137,0.024,0.245,0.064,0.327,0.127
			c0.088,0.054,0.163,0.142,0.22,0.254c0.054,0.112,0.076,0.232,0.076,0.362c0,0.223-0.071,0.416-0.218,0.569
			c-0.136,0.159-0.405,0.239-0.769,0.239H6.74v1.072H6.383z M6.74,30.582h0.686c0.222,0,0.389-0.047,0.486-0.13
			c0.095-0.081,0.14-0.201,0.14-0.359c0-0.105-0.032-0.207-0.083-0.279c-0.058-0.08-0.134-0.134-0.222-0.154
			c-0.059-0.02-0.174-0.027-0.322-0.027H6.74V30.582z"/>
		<path class="st0" d="M8.832,31.965v-2.648h1.006c0.181,0,0.313,0.015,0.406,0.025c0.132,0.024,0.237,0.064,0.328,0.127
			c0.088,0.054,0.158,0.142,0.215,0.254c0.044,0.112,0.078,0.232,0.078,0.362c0,0.223-0.073,0.416-0.213,0.569
			c-0.144,0.159-0.408,0.239-0.78,0.239H9.186v1.072H8.832z M9.186,30.582h0.686c0.23,0,0.384-0.047,0.484-0.13
			c0.105-0.081,0.152-0.201,0.152-0.359c0-0.105-0.032-0.207-0.09-0.279c-0.059-0.08-0.13-0.134-0.217-0.154
			c-0.061-0.02-0.168-0.027-0.335-0.027h-0.68V30.582z"/>
		<path class="st0" d="M11.164,30.678c0-0.444,0.12-0.791,0.35-1.034c0.244-0.245,0.55-0.378,0.918-0.378
			c0.242,0,0.471,0.066,0.66,0.183c0.205,0.112,0.352,0.279,0.452,0.489c0.107,0.207,0.157,0.444,0.157,0.706
			c0,0.274-0.058,0.511-0.168,0.723c-0.107,0.212-0.267,0.379-0.457,0.484c-0.198,0.107-0.413,0.161-0.645,0.161
			c-0.252,0-0.474-0.054-0.674-0.181c-0.195-0.115-0.342-0.286-0.443-0.491C11.208,31.132,11.164,30.915,11.164,30.678
			 M11.529,30.683c0,0.317,0.076,0.572,0.254,0.758c0.174,0.178,0.389,0.274,0.648,0.274c0.263,0,0.481-0.097,0.645-0.281
			c0.176-0.179,0.257-0.449,0.257-0.791c0-0.217-0.032-0.398-0.112-0.559c-0.073-0.166-0.173-0.293-0.311-0.373
			c-0.151-0.095-0.298-0.142-0.479-0.142c-0.247,0-0.459,0.09-0.632,0.262C11.616,30.001,11.529,30.285,11.529,30.683"/>
		<path class="st0" d="M14.145,31.965v-2.648h1.175c0.229,0,0.411,0.025,0.533,0.073c0.125,0.044,0.222,0.134,0.291,0.249
			c0.073,0.127,0.108,0.257,0.108,0.401c0,0.193-0.061,0.352-0.178,0.477c-0.124,0.127-0.317,0.217-0.56,0.249
			c0.085,0.044,0.163,0.086,0.207,0.129c0.102,0.088,0.2,0.208,0.296,0.356l0.459,0.714h-0.45l-0.342-0.55
			c-0.102-0.157-0.193-0.279-0.249-0.367c-0.076-0.08-0.132-0.137-0.183-0.176c-0.058-0.036-0.107-0.056-0.164-0.068
			c-0.041-0.015-0.098-0.015-0.189-0.015h-0.41v1.177L14.145,31.965L14.145,31.965z M14.489,30.483h0.753
			c0.157,0,0.284-0.008,0.388-0.053c0.085-0.024,0.144-0.076,0.193-0.146c0.052-0.081,0.071-0.156,0.071-0.245
			c0-0.127-0.041-0.227-0.136-0.305c-0.086-0.085-0.232-0.127-0.426-0.127h-0.843C14.489,29.607,14.489,30.483,14.489,30.483z"/>
		<polygon class="st0" points="17.396,31.965 17.396,29.632 16.52,29.632 16.52,29.317 18.626,29.317 18.626,29.632 17.746,29.632 
			17.746,31.965 		"/>
		<path class="st0" d="M20.712,29.317h0.342v1.536c0,0.266-0.032,0.472-0.088,0.626c-0.061,0.157-0.176,0.29-0.328,0.384
			c-0.159,0.1-0.364,0.149-0.62,0.149c-0.251,0-0.45-0.039-0.608-0.122c-0.159-0.091-0.268-0.213-0.342-0.374
			c-0.068-0.169-0.1-0.384-0.1-0.664v-1.536h0.356v1.536c0,0.225,0.024,0.398,0.059,0.506c0.042,0.11,0.115,0.189,0.218,0.252
			c0.105,0.056,0.234,0.088,0.39,0.088c0.252,0,0.44-0.063,0.547-0.179c0.117-0.11,0.174-0.34,0.174-0.667
			C20.712,30.852,20.712,29.317,20.712,29.317z"/>
		<polygon class="st0" points="21.54,31.965 21.54,29.317 21.904,29.317 23.296,31.398 23.296,29.317 23.638,29.317 23.638,31.965 
			23.272,31.965 21.88,29.887 21.88,31.965 		"/>
		<rect x="24.186" y="29.317" class="st0" width="0.352" height="2.648"/>
		<polygon class="st0" points="25.813,31.965 25.813,29.632 24.938,29.632 24.938,29.317 27.037,29.317 27.037,29.632 
			26.157,29.632 26.157,31.965 		"/>
		<path class="st0" d="M28.287,31.965v-1.114l-1.028-1.534h0.425l0.521,0.801c0.102,0.147,0.195,0.296,0.271,0.444
			c0.078-0.132,0.179-0.29,0.288-0.469l0.511-0.775h0.408l-1.046,1.534v1.114h-0.35V31.965z"/>
	</g>
</g>
</svg>
